# xmcd
#
# Track frame offsets:
#	150
#	13583
#	27249
#	42183
#	53149
#	65602
#	76515
#	86341
#	100761
#	112301
#	124584
#	140636
#	151275
#	167696
#	183305
#	195852
#	209469
#	223823
#	237003
#	247877
#	257938
#	268984
#
# Disc length: 3725 seconds
#
# Revision: 1
# Processed by: cddbd v1.4PL0 Copyright (c) Steve Scherf et al.
# Submitted via: audiograbber 1.81.02
#
DISCID=2d0e8b16
DTITLE=Claude Francois - Hommage cd 2
DYEAR=1900
DGENRE=Blues
TTITLE0=J'attendrai
TTITLE1=C'est la même chanson
TTITLE2=Mais quand le matin
TTITLE3=Winchester Cathédral
TTITLE4=Quand un bateau passe
TTITLE5=Les cloches sonnaient
TTITLE6=Hey potatoes
TTITLE7=Un monde de musique
TTITLE8=C'est de l'eau c'est du vent
TTITLE9=Les moulins de mon coeur
TTITLE10=Fleur sauvage
TTITLE11=Les choses de la maison
TTITLE12=Y'a le printemps qui chante
TTITLE13=Rêverie
TTITLE14=Le monde est grand les gens sont beaux
TTITLE15=Une petite larme ma trahi
TTITLE16=Si douce à mon souvenir
TTITLE17=Mais combien de temps
TTITLE18=Le nabout twist(bonus)
TTITLE19=Ne t'en fais pas mon vieux(bonus)
TTITLE20=Ali Baba twist(bonus)
TTITLE21=Un clair de lune à Maubeuge(bonus)
EXTD=
EXTT0=
EXTT1=
EXTT2=
EXTT3=
EXTT4=
EXTT5=
EXTT6=
EXTT7=
EXTT8=
EXTT9=
EXTT10=
EXTT11=
EXTT12=
EXTT13=
EXTT14=
EXTT15=
EXTT16=
EXTT17=
EXTT18=
EXTT19=
EXTT20=
EXTT21=
PLAYORDER=
